<?xml version="1.0" standalone="no"?>
<!DOCTYPE svg PUBLIC "-//W3C//DTD SVG 20010904//EN"
 "http://www.w3.org/TR/2001/REC-SVG-20010904/DTD/svg10.dtd">
<svg version="1.0" xmlns="http://www.w3.org/2000/svg"
 width="439.000000pt" height="424.000000pt" viewBox="0 0 439.000000 424.000000"
 preserveAspectRatio="xMidYMid meet">

<g transform="translate(0.000000,424.000000) scale(0.100000,-0.100000)"
fill="#000000" stroke="none">
<path d="M1435 3723 c-102 -157 -200 -380 -277 -633 l-23 -74 -135 -41 c-342
-105 -562 -224 -735 -399 -133 -134 -185 -246 -185 -399 0 -321 331 -627 881
-812 79 -26 149 -52 156 -57 6 -5 19 -41 29 -81 9 -40 36 -129 60 -198 112
-329 258 -576 445 -754 179 -171 348 -248 544 -248 429 0 806 413 1020 1118
20 65 38 121 39 123 2 2 64 21 137 42 610 178 970 478 971 812 2 321 -333 628
-881 808 -80 27 -163 51 -183 55 -21 4 -41 12 -46 19 -5 6 -26 67 -46 136 -66
221 -188 487 -267 584 -27 32 -102 66 -116 53 -2 -3 16 -36 40 -73 103 -161
150 -262 238 -509 40 -113 48 -160 27 -167 -6 -2 -41 0 -77 6 -60 8 -544 2
-1511 -21 -315 -7 -320 4 -27 68 l132 29 -90 -5 c-49 -3 -130 -12 -180 -19
-53 -8 -94 -10 -99 -5 -20 19 75 295 173 501 28 59 51 109 51 111 0 3 -10 7
-21 10 -13 4 -19 11 -16 19 3 7 12 30 21 51 9 20 14 37 12 37 -2 0 -30 -39
-61 -87z m1104 -798 c254 -29 356 -50 329 -66 -16 -10 -14 -87 8 -319 23 -231
23 -601 0 -810 -21 -198 -35 -277 -50 -289 -17 -14 -242 -31 -411 -31 -162 0
-171 4 -161 67 28 177 36 641 15 891 -18 228 -71 537 -94 555 -5 4 -97 6 -202
4 -106 -2 -191 -1 -189 1 25 24 538 23 755 -3z m-918 -130 c30 -88 88 -356
109 -500 37 -253 36 -775 -2 -810 -31 -30 -423 83 -602 172 l-68 34 8 107 c5
59 9 215 9 347 0 192 -4 261 -20 345 -28 157 -28 160 22 188 92 51 469 175
513 169 8 -1 22 -24 31 -52z m1927 -125 c92 -42 262 -152 319 -207 244 -236
209 -515 -89 -720 -92 -64 -234 -135 -259 -131 -20 3 -20 15 -23 443 -2 259
-8 476 -15 528 -15 117 -11 123 67 87z m-392 -1454 c10 -25 -84 -285 -156
-431 -147 -302 -315 -493 -517 -591 -257 -125 -532 -59 -764 182 -139 146
-234 321 -254 469 -4 28 -20 117 -36 200 -16 82 -29 150 -29 152 0 8 129 2
265 -12 452 -46 1070 -31 1390 35 64 13 95 11 101 -4z"/>
</g>
</svg>
