<svg width="120" height="120" xmlns="http://www.w3.org/2000/svg" data-name="Layer 1">
 <defs>
  <linearGradient y2="0" x2="0.5" y1="1" x1="0.5" id="linear-gradient">
   <stop stop-color="#1191d0" offset="0"/>
   <stop stop-color="#44c8f5" offset="1"/>
  </linearGradient>
 </defs>
 <g>
  <title>Layer 1</title>
  <polygon id="svg_1" fill="#003865" points="111.39900207519531,0 0,11.722999572753906 0,111.39900207519531 111.39900207519531,99.67500305175781 111.39900207519531,0 "/>
  <path id="svg_2" fill="url(#linear-gradient)" d="m8.60094,20.32436l0,99.67564l111.39906,-11.72414l0,-99.67495l-111.39906,11.72345zm97.39691,70.51908a5.89632,5.89632 0 0 1 -4.30556,2.79952c-2.172,0.23409 -3.74341,-1.03108 -4.88552,-2.96167l-6.347,-12.62756l-11.753,1.26683a3.9009,3.9009 0 0 1 -3.83225,-1.527a4.73884,4.73884 0 0 1 -0.831,-4.21267a5.58259,5.58259 0 0 1 4.66321,-4.17108l7.45388,-0.80343l-10.80949,-23.34727l-20.13302,48.93555c-1.46832,3.25244 -3.48459,4.83321 -6.27421,5.13389a6.62341,6.62341 0 0 1 -0.79486,0.03774a6.17444,6.17444 0 0 1 -5.5441,-3.99l-20.56316,-52.94713a5.73783,5.73783 0 0 1 0.62378,-5.10838a5.97136,5.97136 0 0 1 4.38546,-2.823a4.71421,4.71421 0 0 1 5.03182,3.09566l17.13011,45.49895l20.73358,-49.28229c1.37093,-2.91455 3.12567,-4.27281 5.59888,-4.53939a5.29792,5.29792 0 0 1 5.58953,3.30529l25.39456,53.21525a5.64318,5.64318 0 0 1 -0.53164,5.05219z"/>
 </g>
</svg>