<svg xmlns="http://www.w3.org/2000/svg" viewBox="0 0 272.97 171.31"><defs><style>.cls-1{fill:#303030;}.cls-2{fill:#997ab5;}</style></defs><g id="Layer_2" data-name="Layer 2"><g id="Layer_1-2" data-name="Layer 1"><path class="cls-1" d="M250.82,0V40.07c0,12.49-3.59,16.26-19.81,16.26s-45.92-23.18-62-24.54c-15.87-1.33-26.81,4.57-32.53,14.69-5.72-10.12-16.67-16-32.53-14.69C87.88,33.15,58.17,56.33,42,56.33s-19.8-3.77-19.8-16.26V0H0V43.13c0,24.28,11.39,37.7,38.89,37S87.11,55.6,103.25,55.6s20.51,4.48,20.51,15.32V78.7h25.46V70.92c0-10.84,4.36-15.32,20.5-15.32s36.85,23.85,64.36,24.54S273,67.41,273,43.13V0Z"/><path class="cls-1" d="M54,134.31l-9.38,36H39l-9.25-27.75-9.18,27.75H15l-9.47-36h6.31l6.61,27.88,9-27.88h5l9.21,27.88,6.26-27.88Z"/><path class="cls-1" d="M92.87,152.94H66.35a15.24,15.24,0,0,0,1,5.78,10.68,10.68,0,0,0,6.72,6.37,16,16,0,0,0,5.07.77,20,20,0,0,0,7.4-1.47,17.91,17.91,0,0,0,5.3-2.88h.32v6.61a49.63,49.63,0,0,1-6.25,2.16,25.37,25.37,0,0,1-6.7.87q-9,0-14-4.85t-5-13.78q0-8.84,4.82-14a16.49,16.49,0,0,1,12.68-5.19q7.29,0,11.23,4.26t4,12.08ZM87,148.3q0-4.77-2.4-7.38t-7.2-2.61a10.51,10.51,0,0,0-7.75,2.86,11.19,11.19,0,0,0-3.27,7.13Z"/><path class="cls-1" d="M133.73,152a24.32,24.32,0,0,1-1.27,8.12,18.19,18.19,0,0,1-3.43,6.05,15.5,15.5,0,0,1-5,3.82,14.06,14.06,0,0,1-6,1.28,17.48,17.48,0,0,1-5.35-.73,24.68,24.68,0,0,1-4.52-2l-.38,1.68h-5.67V120.16h6v17.92a25.34,25.34,0,0,1,5.42-3.43,15.08,15.08,0,0,1,6.44-1.34,11.91,11.91,0,0,1,10.07,4.9Q133.73,143.11,133.73,152Zm-6.25.16q0-6.45-2.13-9.78t-6.86-3.34a13.74,13.74,0,0,0-5.35,1.14,22.88,22.88,0,0,0-5,2.95V163.8a26.78,26.78,0,0,0,4.43,1.61,17.94,17.94,0,0,0,4.21.45,9.87,9.87,0,0,0,7.88-3.3Q127.48,159.26,127.48,152.2Z"/><path class="cls-2" d="M168.89,159.93a9.82,9.82,0,0,1-4.07,8.09q-4.08,3.16-11.14,3.16a26.82,26.82,0,0,1-7.33-1,33.33,33.33,0,0,1-5.59-2.08v-6.8h.32a24.31,24.31,0,0,0,6.38,3.43,19.72,19.72,0,0,0,6.74,1.27,12.65,12.65,0,0,0,6.25-1.29,4.34,4.34,0,0,0,2.26-4.06,4.1,4.1,0,0,0-1.23-3.22,11,11,0,0,0-4.7-1.87c-.86-.19-2-.42-3.37-.67s-2.65-.54-3.79-.84q-4.74-1.26-6.72-3.69a9.17,9.17,0,0,1-2-6,9.82,9.82,0,0,1,.92-4.19,10,10,0,0,1,2.79-3.51,13.28,13.28,0,0,1,4.59-2.4,20.56,20.56,0,0,1,6.23-.89,27.82,27.82,0,0,1,6.53.79,25.16,25.16,0,0,1,5.5,1.92v6.48h-.33a21.59,21.59,0,0,0-5.64-2.89,19.5,19.5,0,0,0-6.51-1.18,11.34,11.34,0,0,0-5.6,1.28,4.47,4.47,0,0,0-.91,7.14,10.9,10.9,0,0,0,4.39,1.83c1.11.26,2.37.52,3.75.78s2.54.49,3.46.7a12.89,12.89,0,0,1,6.51,3.32A8.75,8.75,0,0,1,168.89,159.93Z"/><path class="cls-1" d="M184.07,128.28h-6.83V122h6.83Zm-.39,42h-6.05v-36h6.05Z"/><path class="cls-1" d="M224.87,170.31h-6.06v-3.77a22.07,22.07,0,0,1-5.44,3.51,15,15,0,0,1-6.16,1.26,12.19,12.19,0,0,1-10.23-5q-3.79-5-3.79-13.76a23.66,23.66,0,0,1,1.31-8.15,18.55,18.55,0,0,1,3.53-6.09,14.91,14.91,0,0,1,11.15-5,19,19,0,0,1,5,.6,23.11,23.11,0,0,1,4.61,1.85v-15.6h6.06Zm-6.06-8.86V140.79a22.77,22.77,0,0,0-4.38-1.52,20.6,20.6,0,0,0-4.22-.42,9.59,9.59,0,0,0-7.93,3.55c-1.89,2.36-2.84,5.72-2.84,10s.74,7.53,2.2,9.75,3.8,3.34,7,3.34a12.94,12.94,0,0,0,5.22-1.15A22,22,0,0,0,218.81,161.45Z"/><path class="cls-1" d="M266.93,152.94H240.4a15.43,15.43,0,0,0,1,5.78,10.68,10.68,0,0,0,6.72,6.37,16.06,16.06,0,0,0,5.08.77,20,20,0,0,0,7.39-1.47,18,18,0,0,0,5.31-2.88h.32v6.61a50.18,50.18,0,0,1-6.25,2.16,25.45,25.45,0,0,1-6.71.87q-9,0-14-4.85t-5-13.78q0-8.84,4.82-14a16.49,16.49,0,0,1,12.68-5.19q7.28,0,11.23,4.26t3.95,12.08ZM261,148.3q0-4.77-2.4-7.38t-7.2-2.61a10.5,10.5,0,0,0-7.75,2.86,11.15,11.15,0,0,0-3.28,7.13Z"/></g></g></svg>